<svg width="522" height="174" viewBox="0 0 522 174" fill="none" xmlns="http://www.w3.org/2000/svg">
<path d="M48.1824 137.845C54.7812 137.845 61.2108 136.491 67.302 133.784C73.224 131.246 78.4692 127.523 82.8684 122.955L64.9332 106.035C60.534 110.773 54.612 113.311 48.1824 113.311C39.8916 113.311 32.616 108.911 28.5552 102.482H95.7276V90.1302C95.7276 77.4402 90.8208 65.427 81.8532 56.4594C72.8856 47.4918 60.8724 42.4158 48.1824 42.4158C35.3232 42.4158 23.4792 47.4918 14.3424 56.4594C5.3748 65.427 0.468018 77.4402 0.468018 90.1302C0.468018 102.82 5.3748 114.833 14.3424 123.801C23.4792 132.769 35.3232 137.845 48.1824 137.845V137.845ZM28.5552 77.9478C32.616 71.349 39.8916 66.9498 48.1824 66.9498C56.304 66.9498 63.5796 71.349 67.8096 77.9478H28.5552Z" fill="#848786"/>
<path d="M183.761 56.967C175.639 49.0146 164.979 44.6154 153.643 44.6154C147.552 44.6154 141.799 45.7998 136.554 48.1686V41.9082H111.174V83.3622C111.005 84.7158 111.005 85.9002 111.005 87.2538H111.174V137.168H136.554V84.7158C137.738 76.425 144.845 69.9954 153.643 69.9954C163.118 69.9954 170.901 77.7786 170.901 87.2538V137.168H196.281V87.2538C196.281 75.7482 191.713 65.0886 183.761 56.967V56.967Z" fill="#848786"/>
<path d="M218.908 137.168H244.457V0.792603L218.908 9.25261V137.168Z" fill="#848786"/>
<path d="M269.617 137.168H295.166V39.5394L269.617 47.9994V137.168Z" fill="#848786"/>
<path d="M394.435 55.7826C385.467 46.815 373.454 41.9082 360.933 41.9082C348.243 41.9082 336.23 46.815 327.263 55.7826C318.295 64.7502 313.388 76.5942 313.388 89.2842C313.388 101.974 318.295 113.818 327.263 122.786C336.23 131.753 348.243 136.66 360.933 136.66C368.378 136.66 375.654 134.968 382.083 131.753C379.545 141.059 370.916 147.827 360.933 147.827C355.181 147.827 349.766 145.628 345.705 141.736L328.108 160.179C337.076 168.639 348.582 173.207 360.764 173.207C373.454 173.207 385.467 168.301 394.435 159.333C403.402 150.365 408.309 138.521 408.309 125.831V89.2842C408.309 76.5942 403.402 64.7502 394.435 55.7826V55.7826ZM360.933 111.28C348.751 111.28 338.768 101.467 338.768 89.2842C338.768 77.1018 348.751 67.119 360.933 67.119C373.116 67.119 382.929 77.1018 382.929 89.2842C382.929 101.467 372.947 111.28 360.933 111.28Z" fill="#848786"/>
<path d="M473.31 138.352C479.74 138.352 486.169 136.999 492.091 134.63C497.844 132.092 503.089 128.708 507.488 124.309C511.888 119.74 515.272 114.664 517.81 108.911C520.348 102.989 521.532 96.5598 521.532 90.1302C521.532 83.5314 520.348 77.271 517.81 71.349C515.272 65.5962 511.888 60.351 507.488 55.9518C502.92 51.5526 497.844 48.1686 492.091 45.6306C486.169 43.0926 479.74 41.9082 473.31 41.9082C466.88 41.9082 460.451 43.0926 454.529 45.6306C448.776 48.1686 443.7 51.5526 439.132 55.9518C434.732 60.5202 431.348 65.5962 428.81 71.349C426.442 77.271 425.088 83.5314 425.088 90.1302C425.088 96.5598 426.442 102.989 428.81 108.911C431.348 114.664 434.732 119.74 439.132 124.309C443.7 128.708 448.776 132.092 454.529 134.63C460.451 136.999 466.88 138.352 473.31 138.352V138.352ZM473.31 67.2882C485.831 67.2882 496.152 77.6094 496.152 90.1302C496.152 102.651 485.831 112.972 473.31 112.972C460.789 112.972 450.468 102.651 450.468 90.1302C450.468 77.6094 460.789 67.2882 473.31 67.2882V67.2882Z" fill="#848786"/>
</svg>
